<svg xmlns="http://www.w3.org/2000/svg" xmlns:xlink="http://www.w3.org/1999/xlink" version="1.1" style="" xml:space="preserve" width="40" height="50"><rect id="backgroundrect" width="100%" height="100%" x="0" y="0" fill="none" stroke="none" class="" style=""/>
<style type="text/css">
	.st0{fill:#E3032E;}
</style>

<g class="currentLayer" style=""><title>Layer 1</title><g id="svg_1" class="">
	<path id="Icon_awesome-phone" class="st0" d="M32.2863639831543,46.49257030487061 l3.9,-7.3 c0.4,-0.8 0.2,-1.8 -0.5,-2.4 l-7.5,-5.9 c-0.7000000000000006,-0.5 -1.6,-0.5 -2.2,0 l-5,3.6 c-5.1,-4.3 -8.6,-10.3 -9.8,-16.9 l5.6,-2.5 c0.8,-0.3000000000000003 1.2,-1.1 1.1,-2 L16.5863639831543,3.5925703048706055 c-0.1,-0.9 -0.9,-1.6 -1.8,-1.6 l-8.3,-0.3000000000000003 c-0.9,0 -1.6,0.5 -1.9,1.4 C-0.6136360168457039,22.392570304870603 10.886363983154297,42.1925703048706 30.186363983154294,47.3925703048706 c0,0 0,0 0,0 C30.98636398315429,47.592570304870605 31.886363983154297,47.29257030487061 32.2863639831543,46.49257030487061 z"/>
</g></g></svg>