<svg xmlns="http://www.w3.org/2000/svg" width="238.278" height="63.17" viewBox="0 0 238.278 63.17">
  <path id="Path_1141" data-name="Path 1141" d="M394.109,174.584c6.79,0,17.363-.8,23.224-1.239a.606.606,0,0,0,.641-.509l5.95-30.612a19.4,19.4,0,0,0,.354-3.649c0-7.52-7.1-10.351-18.8-10.351a94.579,94.579,0,0,0-19.818,1.681.559.559,0,0,0-.464.465l-1.681,8.692c-.088.442.2.575.6.509a98.321,98.321,0,0,1,15.726-1.526c5.22,0,8.847.885,8.847,3.981a29.541,29.541,0,0,1-.664,4.313h-5.53c-15.748,0-27.515,3.207-27.515,17.65C374.976,173.058,383.558,174.584,394.109,174.584Zm4.313-8.759c-4.446,0-7.056-.774-7.056-4.092,0-6.193,3.849-7.542,9.6-7.542h6.171l-2.168,11.1A43.1,43.1,0,0,1,398.422,165.825Zm-139.545,8.759c6.79,0,17.363-.8,23.224-1.239a.605.605,0,0,0,.641-.509l5.95-30.612a19.389,19.389,0,0,0,.354-3.649c0-7.52-7.1-10.351-18.8-10.351a94.577,94.577,0,0,0-19.818,1.681.559.559,0,0,0-.465.465l-1.681,8.692c-.089.442.2.575.6.509a98.318,98.318,0,0,1,15.726-1.526c5.22,0,8.847.885,8.847,3.981a29.566,29.566,0,0,1-.663,4.313h-5.53c-15.748,0-27.515,3.207-27.515,17.65C239.745,173.058,248.327,174.584,258.877,174.584Zm3.672-8.759c-4.446,0-7.056-.774-7.056-4.092,0-6.193,3.849-7.542,9.6-7.542h6.171l-2.168,11.1A43.1,43.1,0,0,1,262.549,165.825Zm-45.94,7.52h14.311c.4,0,.641-.155.708-.509l5.95-30.612a19.39,19.39,0,0,0,.354-3.649c0-7.52-5.529-10.351-11.28-10.351a47.166,47.166,0,0,0-17.1,3.45l3.827-19.641c.088-.464-.133-.619-.531-.619H198.538c-.4,0-.641.155-.708.509l-5.751,29.639c-.066.332.111.531.487.442,4.6-1,13.4-2.809,19.929-2.809,5.839,0,8.936.863,8.936,4.534a22.124,22.124,0,0,1-.575,4.4l-4.778,24.6C215.99,173.191,216.211,173.345,216.609,173.345Zm-30.059,0h14.311c.4,0,.641-.155.708-.509l5.419-27.869c.044-.265-.088-.42-.442-.4-9.356.619-16.1,5.419-17.717,13.713l-2.809,14.443C185.931,173.191,186.152,173.345,186.55,173.345Zm105.173,0h14.311c.4,0,.641-.155.708-.509l6.083-31.342a25.978,25.978,0,0,1,8.759-2.057c1.792,0,5.021.619,5.021,4.291a22.129,22.129,0,0,1-.575,4.4l-4.777,24.6c-.089.464.133.619.531.619h14.311c.4,0,.641-.155.708-.509l6.06-31.342a26.446,26.446,0,0,1,8.825-2.057c1.792,0,5.021.619,5.021,4.291a22.121,22.121,0,0,1-.575,4.4l-4.822,24.6c-.088.464.133.619.531.619h14.311c.4,0,.641-.155.708-.509l5.95-30.612a19.386,19.386,0,0,0,.354-3.649c0-7.52-5.441-10.351-11.192-10.351-5.795,0-12.961,1.858-19.906,5.419-1.836-3.76-5.618-5.419-10.174-5.419-5.087,0-12.254,1.659-19.066,5.331l.752-3.827c.089-.465-.133-.619-.531-.619H300.3c-.4,0-.641.155-.708.509l-8.4,43.109C291.1,173.191,291.325,173.345,291.723,173.345Z" transform="translate(-186 -111.414)" fill="#f04137"/>
</svg>
